<svg width="113" height="239" viewBox="0 0 113 239" fill="none" xmlns="http://www.w3.org/2000/svg">
<g id="flower">
<path id="flower_2" d="M2.46286 205.452C2.52834 206.27 3.31411 206.761 4.01802 207.007C4.96749 207.318 6.83368 207.236 6.98101 205.959C7.06286 206.025 7.16108 206.107 7.24293 206.172C7.43937 206.336 7.68492 206.107 7.57033 205.894C7.47211 205.714 7.34115 205.55 7.19382 205.386C7.423 205.386 7.66855 205.403 7.89773 205.419C7.89773 205.419 7.93047 205.452 7.93047 205.468C8.14328 205.845 7.60307 206.139 7.32478 206.27C7.19382 206.336 7.30841 206.549 7.423 206.499C7.78314 206.368 8.43794 206.139 8.50342 205.681C8.50342 205.615 8.50342 205.55 8.50342 205.484C10.8771 205.681 13.1362 206.123 15.4935 207.138C15.5098 207.138 15.5262 207.138 15.5426 207.138C19.7333 211.116 23.2692 215.438 23.613 221.413C23.4166 226.766 22.86 232.053 21.7305 237.144C21.5995 237.717 22.4998 237.93 22.6308 237.341C24.2023 230.121 24.6443 222.575 24.5461 214.979C24.5461 214.979 24.5461 214.963 24.5461 214.946C24.186 210.625 28.1475 206.45 31.0287 203.193C30.9304 203.324 31.0941 203.487 31.2415 203.405C33.6806 201.899 36.0215 201.883 38.608 201.883C38.4934 202.03 38.3952 202.178 38.3134 202.358C38.1988 202.603 38.297 202.833 38.5098 202.98C39.0991 203.373 39.7867 203.635 40.5069 203.733C40.5561 203.798 40.6052 203.847 40.687 203.847C42.324 203.978 43.8792 203.389 45.2052 202.472C45.4343 202.309 45.4507 202.014 45.2543 201.801C43.9119 200.312 40.8671 200.05 39.181 201.31C36.4472 200.819 33.0258 201.31 31.0778 203.144C31.3397 202.849 31.5852 202.554 31.8308 202.276C34.5155 199.133 37.3639 196.759 40.7689 194.926C40.818 194.991 40.8671 195.024 40.9653 195.04C41.0635 195.04 41.1781 195.04 41.3091 195.057C41.3091 195.27 41.4073 195.466 41.6201 195.646C42.3404 196.219 43.7318 195.679 44.4358 195.384C44.8614 195.204 45.4507 194.795 45.9745 194.287C46.7603 193.747 47.366 192.929 47.5133 192.028C47.5297 191.881 47.4642 191.734 47.3169 191.685C47.2187 191.259 46.9076 190.882 46.2201 190.637C44.0592 189.835 41.4073 191.979 40.8016 194.107C38.8372 195.04 37.102 196.285 35.4977 197.741C35.5795 197.594 35.6614 197.447 35.7432 197.299C36.218 196.448 36.84 195.466 37.1674 194.484C38.7062 193.747 39.2956 191.586 39.2628 190.015C39.2628 189.769 38.9682 189.638 38.7717 189.769C37.2984 190.653 36.6272 192.667 36.5454 194.32C36.087 195.073 35.7924 195.973 35.3831 196.726C34.8102 197.791 34.1553 198.74 33.3696 199.673C33.3205 199.722 33.3368 199.804 33.3696 199.853C32.1582 201.146 30.9959 202.522 29.85 203.897C29.1625 204.715 28.3603 205.632 27.5746 206.614C28.9169 204.159 30.2265 201.408 30.7504 198.625C30.8813 198.691 31.0614 198.707 31.1924 198.593C32.7803 197.119 33.9916 194.418 33.3696 192.257C33.2877 191.979 32.9603 191.881 32.7312 192.028C31.5361 192.765 30.6685 194.238 30.2593 195.564C30.0628 196.219 29.7682 197.594 30.4557 198.085C29.3917 200.999 28.2785 203.913 27.2308 206.843C27.2144 206.909 27.2635 206.958 27.3127 206.958C26.0685 208.546 24.939 210.297 24.4643 212.114C24.1696 203.062 23.1874 193.976 22.4507 185.317C22.4016 184.842 22.3525 184.351 22.3034 183.876C23.2038 181.666 24.3006 179.669 25.5283 177.786C26.9198 177.377 28.2457 177.246 29.7518 177.557C30.2102 177.655 30.6849 177.754 31.1433 177.852C30.9796 178.588 31.1924 179.44 31.7653 180.013C32.371 180.618 33.2386 180.897 34.0899 180.848C34.761 180.798 35.776 180.602 36.4144 180.094C36.7909 179.898 37.0365 179.538 37.0365 179.08C37.0037 177.066 33.8443 175.806 32.1909 176.542C31.8472 176.69 31.5852 176.919 31.4052 177.197C29.5881 176.804 27.6073 176.706 25.9048 177.23C27.6401 174.643 29.6208 172.286 31.6835 169.929C33.1568 170.649 34.9247 171.091 36.5618 171.369C36.5618 171.909 36.7418 172.384 37.0529 172.777C37.102 173.121 37.282 173.465 37.5767 173.727C37.7077 173.841 37.8714 173.71 37.8386 173.563C37.8386 173.53 37.8386 173.481 37.8222 173.448C38.0187 173.563 38.2315 173.661 38.4607 173.743C39.4593 174.07 41.0635 174.267 41.9475 173.546C43.1589 172.564 41.1617 171.287 40.3105 171.075C40.1959 171.042 40.0813 171.042 39.9667 171.025C39.2792 170.469 37.7731 170.42 36.971 170.436C36.8073 170.436 36.6763 170.567 36.6272 170.731C36.5945 170.845 36.5781 170.96 36.5781 171.075C35.1376 170.403 33.4678 170.06 31.9126 169.699C33.2223 168.193 34.5646 166.671 35.9069 165.083C36.3489 165.149 36.7418 165.099 37.0856 164.969C39.2956 164.576 41.3582 162.398 40.6706 160.123C40.6379 159.992 40.4742 159.861 40.3269 159.877C39.5575 160.008 38.9354 160.319 38.3952 160.729C36.7746 161.269 35.4813 162.857 35.2685 164.527C35.2685 164.592 35.2685 164.641 35.3013 164.69C35.2521 164.739 35.2521 164.821 35.3013 164.887C33.255 166.933 31.0614 169.127 29.0315 171.484C29.9646 169.29 30.7995 166.933 31.1105 164.592C31.2578 164.707 31.4707 164.739 31.7326 164.592C31.8472 164.527 31.8635 164.379 31.7981 164.265C31.5852 163.855 31.307 163.708 31.2906 163.151C31.2906 162.497 31.3724 161.842 31.5361 161.203C31.7326 160.45 31.9618 159.583 32.3546 158.862C32.3546 159.714 32.2564 160.565 32.06 161.4C32.0763 161.203 32.0763 160.991 32.1091 160.794C32.1091 160.68 31.9618 160.63 31.929 160.745C31.6835 161.629 31.5361 162.529 31.4543 163.446C31.4215 163.741 31.8963 163.823 32.0109 163.577C32.8294 161.825 33.2059 159.796 32.9767 157.88C32.944 157.586 32.6166 157.455 32.4037 157.667C31.2742 158.813 30.7995 160.843 30.6358 162.382C30.603 162.644 30.603 163.315 30.734 163.872C29.9973 166.72 29.408 169.519 28.3276 172.286C27.8692 172.843 27.4272 173.399 27.0016 173.972C27.5746 171.893 27.6892 169.536 27.4927 167.375C27.5746 167.342 27.6401 167.309 27.6728 167.211C27.771 166.949 27.8365 166.704 27.9183 166.442C28.2949 166.098 28.5731 165.394 28.6714 164.805C28.8514 163.708 29.0315 161.498 27.5582 161.105C26.2486 160.745 25.823 162.84 25.7248 163.708C25.5938 164.87 25.7575 166.507 26.8379 167.195C26.7724 169.798 26.9689 172.302 26.3141 174.889C24.4806 177.443 23.0073 180.144 22.2216 183.008C21.4685 175.053 20.3717 167.162 18.7838 159.386C19.3404 157.504 19.6187 155.572 19.9297 153.624C20.7155 152.314 21.5176 151.021 22.5326 149.859C23.2529 149.024 24.055 148.304 24.8571 147.583C24.8571 147.583 24.8735 147.584 24.8899 147.6C24.939 147.6 24.9717 147.6 25.0208 147.6C25.0372 147.714 25.2173 147.796 25.3155 147.682C25.3155 147.682 25.3155 147.682 25.3319 147.665C25.2991 147.829 25.381 148.009 25.5774 148.009C27.46 148.009 29.9646 146.83 29.981 144.702C29.981 144.539 29.85 144.391 29.6863 144.359C27.5418 143.917 25.692 145.243 24.6116 147.011C22.7781 148.451 21.2066 150.563 20.0771 152.625C20.208 151.807 20.339 151.005 20.5191 150.203C21.1575 147.207 22.1397 144.49 23.4166 141.788C23.4493 141.969 23.5966 142.149 23.7931 142.116C26.1176 141.707 27.0671 138.842 25.9867 136.894C25.9048 136.747 25.692 136.665 25.5447 136.73C24.6116 137.139 24.0714 137.942 23.7767 138.907C23.6458 139.366 23.4002 140.086 23.4002 140.692C22.107 142.591 21.1575 144.784 20.4863 147.109C20.5518 145.275 20.5354 143.442 20.5354 141.608C20.5518 141.576 20.5682 141.543 20.5682 141.51C20.5682 141.379 20.5682 141.248 20.5354 141.117C20.5354 140.986 20.5354 140.839 20.5354 140.708C20.6009 140.626 20.6664 140.528 20.7155 140.413C20.781 140.724 21.2557 140.79 21.3703 140.413C21.665 139.349 21.7468 138.253 21.6977 137.172C21.7141 137.025 21.7305 136.877 21.7632 136.746C21.7632 136.681 21.7141 136.632 21.665 136.616C21.5995 135.993 21.5013 135.355 21.3539 134.733C21.3048 134.52 20.9774 134.389 20.8137 134.537C19.8479 135.339 19.455 136.55 19.3895 137.778C19.3404 138.793 19.3404 140.201 19.8643 141.183C19.6187 143.786 19.8643 146.552 19.9952 149.139C19.2749 152.298 18.9312 155.588 18.6365 158.584C17.4906 153.018 16.0991 147.485 14.413 142.05C14.4294 142.034 14.4458 142.001 14.4458 141.969C14.1511 140.233 14.0856 138.433 14.1511 136.681C14.1838 135.715 14.2984 134.7 14.3312 133.702C14.6258 134.16 15.0023 134.455 15.2643 133.882C15.3789 133.882 15.4935 133.849 15.5426 133.751C16.3611 132.097 16.4593 129.855 15.3625 128.3C15.2479 128.136 15.0187 128.07 14.855 128.185C13.4963 129.134 13.3653 130.951 13.7419 132.441C13.1689 134.831 13.3326 137.68 13.8073 140.217C13.0543 137.909 12.2522 135.601 11.4009 133.309C11.9903 131.705 10.4515 126.319 8.04506 127.514C6.70271 128.185 7.70129 130.51 8.17602 131.41C8.38883 131.819 10.2878 134.52 11.0899 133.751C11.8593 136.812 12.6942 139.873 13.5618 142.918C13.0707 142.263 12.5305 141.658 11.9739 141.052C10.9917 139.971 10.0586 138.842 9.07638 137.745C9.28919 136.059 7.71766 131.099 5.31126 133.047C3.39596 134.602 6.89916 138.236 8.53616 138.433C8.66713 138.433 8.8472 138.4 8.92905 138.285C9.64933 139.235 10.5333 140.086 11.3191 140.937C12.2522 141.952 13.1034 143.033 13.9056 144.146C15.2315 148.746 16.5902 153.346 17.7362 157.995C18.5874 161.449 19.2258 164.936 19.7497 168.423C18.1127 164.265 15.608 160.467 12.7924 156.865V156.833C12.4814 155.228 12.3177 153.411 11.892 151.709C11.9575 151.709 12.0394 151.692 12.1048 151.66C12.1867 151.774 12.2685 151.889 12.3995 151.987C12.6451 152.183 12.9397 152.02 12.9561 151.725C13.1034 149.597 12.2358 146.88 10.1077 146.012C9.94399 145.946 9.68207 145.963 9.60022 146.176C9.09275 147.518 9.69844 149.221 10.4024 150.383C10.5824 150.694 10.8771 151.07 11.1881 151.349C11.5483 153.002 11.8593 154.672 12.334 156.26C10.2059 153.575 7.9141 151.005 5.72051 148.467C5.72051 148.435 5.72051 148.418 5.72051 148.386C5.86784 148.337 5.98243 148.271 6.03154 148.124C6.08065 148.009 6.04791 147.878 5.93332 147.829C5.81873 147.764 5.68777 147.731 5.55681 147.698C5.21304 146.405 4.52549 145.046 3.85432 144.064C3.21589 143.131 1.61162 141.674 0.711264 143.245C-0.320051 145.046 2.6593 147.551 4.5746 148.238C4.82016 148.517 5.06571 148.811 5.24578 149.139C5.32763 149.286 5.49133 149.286 5.60592 149.221C7.76677 152.02 10.0258 154.672 12.1867 157.406C10.8771 156.554 9.32193 156.03 7.78314 155.621C7.83225 155.13 7.63581 154.623 7.19382 154.361C5.94969 153.64 3.78884 154.213 2.69204 154.999C2.44649 155.179 2.44649 155.539 2.72478 155.703C3.62514 156.243 6.53901 157.455 7.40663 156.276C7.47211 156.276 7.52122 156.243 7.5867 156.194C9.45289 156.849 11.3682 157.144 12.9233 158.339C15.4771 161.613 17.8671 165.018 19.7169 168.914C19.7333 168.963 19.7824 168.963 19.8315 168.963C20.6009 174.398 21.092 179.849 21.5831 185.349C21.8778 188.574 22.2052 191.881 22.4998 195.22C20.9938 188.852 17.2778 183.336 13.1525 178.081C12.7269 176.853 12.3177 175.625 12.1376 174.332C12.0066 173.334 12.023 172.368 12.0885 171.402C12.2522 171.5 12.4814 171.5 12.6123 171.336C13.218 170.616 13.4799 169.765 13.4636 168.897C13.7582 168.062 13.8564 167.178 13.8237 166.245C13.8237 166.082 13.7091 165.951 13.5618 165.902C13.4963 165.591 13.3162 165.312 12.9888 165.247C12.3995 165.099 11.7938 165.525 11.4337 165.967C10.5824 167.015 10.3205 168.766 10.9262 170.027C10.8607 170.6 10.8771 171.222 11.2536 171.598C11.3518 171.713 11.5155 171.631 11.5646 171.5C11.5646 171.484 11.5646 171.451 11.5646 171.435C11.3191 173.268 11.6792 175.249 12.334 177.033C10.3696 174.578 8.35609 172.171 6.47353 169.749C6.47353 169.667 6.47353 169.601 6.47353 169.519C6.47353 169.519 6.47353 169.503 6.47353 169.487C6.50627 168.766 6.14613 168.079 5.68777 167.49C5.00023 166.327 3.98528 165.28 3.08493 164.854C2.80663 164.723 2.56108 164.674 2.34827 164.674C2.20094 164.608 2.05361 164.527 1.88991 164.477C1.66073 164.396 1.36607 164.641 1.39881 164.887C1.41518 165.05 1.44792 165.181 1.48066 165.329C1.16963 166.131 1.36607 167.44 1.79169 168.095C2.43012 169.094 3.41233 170.289 4.60734 170.616C5.08208 170.747 5.62229 170.665 5.9988 170.387C9.06001 174.856 12.5959 178.85 15.7063 183.139C15.1169 182.746 14.4621 182.419 13.7746 182.141C12.023 181.42 10.255 180.766 8.51979 180.029C8.50342 179.783 8.42157 179.554 8.35609 179.358C7.61944 177.606 5.94969 176.657 4.09987 177.295C3.51055 177.508 2.64293 177.885 2.67567 178.638C2.70841 179.325 3.29774 179.849 3.83795 180.209C5.29489 181.175 7.68492 182.108 9.45289 181.535C9.53474 181.502 9.61659 181.437 9.64933 181.355C11.9411 182.223 14.6422 182.599 16.4102 184.089C16.9504 184.858 17.4742 185.628 17.9653 186.413C17.9817 186.462 18.0144 186.512 18.0308 186.561C18.0308 186.61 18.0799 186.61 18.0963 186.626C20.0116 189.704 21.6159 193.01 22.6144 196.808C22.6144 196.841 22.6472 196.874 22.6799 196.874C23.3184 204.126 23.8258 211.558 23.6949 218.859C23.171 216.256 21.976 213.866 20.4208 211.623C19.1604 209.217 19.013 206.843 18.8657 204.306C18.8657 204.306 18.8821 204.306 18.8984 204.306C18.8984 204.322 18.8984 204.355 18.9148 204.371C18.9475 204.453 19.0294 204.486 19.0949 204.486C19.1112 204.617 19.144 204.748 19.1603 204.879C19.1603 205.304 19.7988 205.272 19.8152 204.846C19.8152 204.682 19.8152 204.502 19.7824 204.339C20.6173 204.093 20.5682 203.062 20.1917 202.194C20.0116 201.31 19.4386 200.443 18.7347 199.984C18.5547 199.853 18.2436 199.968 18.1454 200.164C17.687 201.196 17.3433 203.373 18.4564 204.126C18.391 205.894 18.3418 207.891 18.8657 209.593C17.3924 207.793 15.6899 206.09 13.9547 204.453C12.8742 202.292 12.1048 200.246 11.5974 198.003C12.0721 198.151 12.5796 198.167 12.9561 197.823C13.6109 197.234 13.2671 196.399 12.776 195.826C12.8415 194.156 12.3831 192.519 11.2863 191.161C11.1063 190.948 10.8771 190.931 10.6643 191.112C9.04364 192.503 8.78172 196.235 10.6479 197.529C10.7461 197.594 10.8443 197.66 10.9589 197.725C11.2045 199.624 11.6956 201.457 12.5468 203.144C10.2223 201.015 7.86499 198.986 5.8351 196.972C5.8351 196.907 5.8351 196.825 5.78599 196.759C5.75325 196.726 5.72051 196.694 5.68777 196.661C5.94969 195.712 5.1803 194.173 4.75467 193.583C4.26357 192.912 2.52834 191.455 1.64436 192.241C0.891335 192.912 2.15183 194.386 2.56108 194.877C3.03582 195.45 3.54329 195.99 4.09987 196.465C4.32905 196.776 4.5746 197.054 4.90201 197.267C4.98386 197.316 5.08208 197.234 5.08208 197.152C5.14756 197.185 5.19667 197.218 5.26215 197.218C7.88136 200.344 11.2372 203.094 14.3803 205.943C12.5959 205.059 10.4024 204.797 8.29061 204.797C8.20876 204.699 8.12691 204.617 8.02869 204.535C7.14471 203.831 5.76962 203.389 4.64008 203.553C3.82158 203.667 2.39738 204.404 2.4956 205.419L2.46286 205.452ZM5.09845 196.252C5.09845 196.252 5.08208 196.252 5.06571 196.235C4.78742 195.957 4.49275 195.662 4.23083 195.384C4.19809 195.351 4.18172 195.335 4.14898 195.335C4.05076 195.122 3.9198 194.926 3.70699 194.762C3.60877 194.68 3.51055 194.697 3.4287 194.729C2.9376 194.206 2.36464 193.567 2.20094 192.896C2.20094 192.863 2.20094 192.863 2.18457 192.847C2.43012 192.847 2.67567 192.961 2.88849 193.043C3.46144 193.305 3.9198 193.6 4.26357 194.14C4.5746 194.631 4.82016 195.171 4.96749 195.728C5.00023 195.859 5.06571 196.055 5.11482 196.252H5.09845ZM11.9739 195.564C11.9411 195.433 11.892 195.319 11.8102 195.237C11.6956 194.926 11.581 194.598 11.5319 194.238C11.4828 193.894 10.9589 193.911 10.9917 194.255C10.9917 194.386 11.0244 194.5 11.0408 194.631C11.0244 194.451 10.7625 194.467 10.7625 194.631C10.7625 195.286 10.7789 195.924 10.828 196.579C10.4842 196.219 10.2714 195.777 10.2387 195.22C10.1568 194.189 10.2387 192.896 10.9098 192.028C11.6792 193.141 11.9248 194.304 11.9739 195.548V195.564ZM11.4664 197.119C11.4664 197.119 11.4173 197.07 11.3846 197.054C11.3846 196.972 11.3518 196.874 11.3354 196.776C11.3846 196.776 11.45 196.776 11.45 196.71C11.45 196.514 11.45 196.317 11.4664 196.104C11.6137 196.268 11.8757 196.268 11.9903 196.104C11.9903 196.481 11.9903 196.874 11.9575 197.267C11.7611 197.234 11.5646 197.152 11.4828 197.103L11.4664 197.119ZM6.45716 179.702C6.58812 179.669 6.71909 179.669 6.83368 179.685C7.14471 180.013 7.50485 180.275 7.89773 180.52C7.9141 180.553 7.93047 180.586 7.94684 180.618C7.89773 180.635 7.83225 180.651 7.7504 180.618C7.81588 180.52 7.70129 180.406 7.60307 180.438C7.52122 180.455 7.45574 180.471 7.39026 180.471C7.29204 180.422 7.19382 180.356 7.11197 180.307C7.04649 180.258 6.96464 180.34 6.98101 180.406C6.73546 180.291 6.57175 180.013 6.45716 179.685V179.702ZM7.97958 179.783C7.97958 179.783 7.93047 179.751 7.89773 179.751C7.43937 179.178 6.78457 178.883 5.98243 179.194C5.81873 179.26 5.73688 179.407 5.78599 179.587C5.85147 179.849 5.94969 180.209 6.11339 180.504C5.85147 180.422 5.58955 180.324 5.344 180.209C4.86927 179.996 2.61019 178.916 3.72336 178.228C5.06571 177.41 6.63723 177.623 7.55396 178.932C7.73403 179.194 7.89773 179.472 8.01232 179.783H7.97958ZM3.7561 168.504C3.70699 168.619 3.78884 168.734 3.90343 168.75C4.06713 168.75 4.21446 168.75 4.36179 168.766C4.67282 169.127 5.00023 169.47 5.36037 169.798C5.06571 169.912 4.62371 169.83 4.21446 169.536C3.47781 169.028 2.80663 168.308 2.38101 167.522C2.3319 167.44 2.26642 167.277 2.21731 167.064C2.26642 167.048 2.29916 166.998 2.28279 166.933C2.21731 166.442 2.21731 165.951 2.23368 165.46C2.70841 165.689 3.18315 166.016 3.64151 166.409C3.60877 166.458 3.5924 166.524 3.64151 166.606C3.96891 167.162 4.31268 167.702 4.65645 168.243C4.31268 168.062 3.96891 168.062 3.7561 168.504ZM11.3191 168.554C11.2863 167.964 11.3846 167.359 11.6792 166.818C11.9084 166.425 12.2522 165.885 12.7269 165.787C12.9561 165.738 13.087 165.853 13.1853 166.033C13.1362 166.082 13.1034 166.147 13.0707 166.213C12.6778 166.213 12.334 166.622 12.154 166.9C11.8102 167.408 11.5319 167.964 11.3354 168.554H11.3191ZM7.19382 155.458C6.86642 155.376 6.53901 155.294 6.22798 155.228C6.03154 155.179 5.91695 155.474 6.11339 155.556C6.17887 155.588 6.26072 155.621 6.34257 155.654C6.29346 155.687 6.26072 155.736 6.27709 155.785C5.44222 155.818 4.64008 155.638 3.85432 155.294C4.44364 155.016 5.13119 154.868 5.72051 154.819C6.11339 154.786 6.85005 154.721 7.0956 155.114C7.14471 155.196 7.19382 155.327 7.21019 155.441L7.19382 155.458ZM4.44364 146.912C4.31268 146.765 4.18172 146.601 4.05076 146.454C3.9198 146.29 3.65788 146.519 3.77247 146.683C3.87069 146.83 3.98528 146.961 4.0835 147.092C3.77247 146.912 3.47781 146.716 3.19952 146.487C2.67567 146.061 0.694894 144.391 1.52977 143.573C2.47923 142.672 3.65788 144.981 4.44364 146.912ZM11.7447 150.645C11.7774 150.743 11.8102 150.841 11.8429 150.923C11.7938 150.89 11.7611 150.858 11.7283 150.825C11.5319 150.203 11.2863 149.597 10.9753 149.057C10.8935 148.909 10.6806 149.024 10.7298 149.171C10.7298 149.204 10.7461 149.253 10.7625 149.302C10.7625 149.286 10.7298 149.237 10.7298 149.221C10.4515 148.549 10.1241 147.665 10.2223 146.88C11.5974 147.698 12.1867 149.417 12.3177 150.988C12.3177 150.988 12.3013 150.988 12.2849 150.988C12.1703 150.858 12.0721 150.694 11.9903 150.514C11.9248 150.383 11.712 150.481 11.7611 150.628L11.7447 150.645ZM6.86642 135.371C7.01375 135.551 7.16108 135.732 7.29204 135.928C7.32478 135.977 7.60307 136.403 7.76677 136.697C7.78314 136.796 7.81588 136.894 7.86499 136.992C7.86499 136.992 7.86499 137.008 7.86499 137.025C7.79951 137.025 7.78314 137.09 7.79951 137.139C7.76677 137.123 7.73403 137.09 7.70129 137.074C7.53759 136.828 7.37389 136.583 7.24293 136.321C7.0956 136.01 6.98101 135.699 6.88279 135.371H6.86642ZM8.48705 136.877C8.48705 136.877 8.38883 136.812 8.32335 136.779C8.27424 136.747 8.20876 136.779 8.17602 136.779C8.14328 136.583 8.04506 136.337 7.89773 136.075C7.88136 135.863 7.86499 135.65 7.89773 135.404C7.89773 135.306 7.73403 135.29 7.71766 135.388C7.71766 135.502 7.70129 135.601 7.68492 135.715C7.27567 135.077 6.73546 134.438 6.62086 134.324C6.45716 134.16 6.1625 134.307 6.1625 134.537C6.17887 134.995 6.27709 135.486 6.42442 135.944C5.60592 135.028 5.08208 133.996 5.86784 133.505C7.30841 132.572 8.22513 135.29 8.48705 136.877ZM9.58385 131.59C9.64933 131.721 9.84577 131.737 9.89488 131.59C9.96036 131.361 9.94399 131.115 9.92762 130.87C10.4515 131.443 10.9917 132.327 10.5824 132.9C10.4351 132.85 10.2878 132.785 10.1732 132.67C9.74755 132.294 9.38741 131.852 9.10912 131.344C8.73261 130.69 7.81588 129.069 8.32335 128.3C8.99453 127.252 10.3696 130.117 10.5006 130.46C10.5169 130.51 10.5497 130.608 10.5988 130.722C10.386 130.444 10.1404 130.198 9.91125 130.018C9.74755 129.887 9.48563 129.937 9.43652 130.166C9.3383 130.673 9.42015 131.148 9.63296 131.606L9.58385 131.59ZM15.0187 129.036C15.6735 130.248 15.5753 131.688 15.1988 132.998C15.1006 132.834 15.0515 132.654 15.0678 132.441C15.0678 132.228 14.7404 132.245 14.7404 132.441C14.7404 132.507 14.7404 132.539 14.7404 132.588C14.5931 132.114 14.4458 131.606 14.4458 131.492C14.3639 130.608 14.4294 129.658 15.0351 129.003L15.0187 129.036ZM20.8465 135.601C20.9611 136.223 21.0265 136.845 21.0429 137.467C20.9447 137.188 20.5518 137.205 20.5354 137.549C20.5191 137.892 20.5027 138.22 20.4863 138.564C20.4208 138.564 20.3717 138.596 20.339 138.662C20.3063 138.776 20.2899 138.891 20.2735 139.006C20.0934 137.794 20.0771 136.583 20.8465 135.617V135.601ZM24.3006 140.675C24.3497 140.397 24.366 140.102 24.4151 139.84C24.4643 139.595 24.5297 139.349 24.6116 139.087C24.8408 138.596 25.1682 138.171 25.5774 137.811C25.8393 138.924 25.2337 140.037 24.3006 140.675ZM26.1831 146.863C26.7561 146.29 27.3618 145.734 28.0984 145.406C27.7546 146.208 27.0344 146.732 26.1831 146.863ZM27.2308 162.284C26.6906 163.413 26.7233 164.608 26.7724 165.82C26.7397 165.82 26.7233 165.82 26.707 165.82C26.4778 165.329 26.4287 164.723 26.4287 164.216C26.4287 163.561 26.5105 162.202 27.149 161.776C27.8692 161.285 28.213 162.726 28.1803 164.085C28.1475 163.512 28.0657 162.939 27.902 162.333C27.8201 162.022 27.3618 161.989 27.2308 162.267V162.284ZM38.5589 163.61C39.0664 162.791 39.3774 161.76 39.5411 160.876C39.5411 160.86 39.5411 160.827 39.5411 160.811C39.7212 160.729 39.9012 160.68 40.0977 160.614C40.2941 161.809 39.5902 162.922 38.5589 163.593V163.61ZM36.5454 164.314C36.7091 164.117 36.8892 163.921 37.0529 163.708C37.1674 163.561 37.0529 163.381 36.9219 163.364C37.5276 162.578 38.1169 161.76 38.8699 161.203C38.6571 162.202 38.2151 163.413 37.4785 164.117C37.1674 164.216 36.8564 164.281 36.5454 164.297V164.314ZM37.8386 172.499C37.9205 172.171 38.1497 171.909 38.6408 171.778C38.9027 171.713 39.1646 171.697 39.4429 171.713C39.4429 171.762 39.4593 171.795 39.5084 171.844C39.6393 171.942 39.7375 172.024 39.803 172.122C39.803 172.171 39.7867 172.22 39.7539 172.27C39.6884 172.401 39.7703 172.499 39.8849 172.532C39.8849 172.63 39.9012 172.744 39.9831 172.826C40.0649 172.924 40.1959 172.957 40.2941 172.859C40.4415 172.695 40.5069 172.532 40.5233 172.384C40.5561 172.253 40.5888 172.139 40.5233 171.959C40.6215 172.008 40.7361 172.04 40.8343 172.106C41.3909 172.45 41.9475 172.859 41.0963 173.104C40.1141 173.383 38.6244 173.219 37.8386 172.499ZM35.1212 177.557C34.6301 177.557 34.139 177.688 33.697 177.934C33.697 177.868 33.6479 177.819 33.5824 177.786C33.1731 177.639 32.7311 177.508 32.2728 177.393C32.7966 177.033 33.697 177.05 34.3354 177.246C34.5646 177.312 34.8429 177.426 35.1212 177.557ZM35.0721 179.636C35.2849 179.505 35.5141 179.407 35.5795 179.161C35.6778 178.752 34.9084 178.507 34.6628 178.408C34.6301 178.408 34.581 178.392 34.5482 178.392C35.0557 178.245 35.5795 178.228 36.0215 178.539C36.6763 178.981 35.9561 179.538 35.465 179.734C35.334 179.702 35.203 179.669 35.0721 179.636ZM31.8799 177.983C32.3874 178.065 32.8949 178.114 33.4023 178.114C33.3368 178.163 33.255 178.196 33.1895 178.245C32.8621 178.507 33.1731 179.014 33.5497 178.801C33.7788 178.67 34.0571 178.539 34.3354 178.441C34.2699 178.49 34.2208 178.572 34.2208 178.67C34.2208 178.801 34.2208 178.916 34.2208 179.047C34.2208 179.145 34.2863 179.26 34.3845 179.309C34.4173 179.325 34.45 179.358 34.4827 179.391C34.45 179.391 34.4173 179.358 34.4009 179.341C34.3027 179.292 34.2045 179.423 34.2863 179.505C34.4009 179.587 34.5319 179.669 34.6628 179.751C34.5973 179.833 34.7447 179.914 34.8102 179.849C34.8429 179.865 34.8756 179.898 34.9247 179.914C33.7134 180.225 32.1418 180.062 31.8635 178.605C31.8144 178.359 31.8308 178.163 31.8799 177.983ZM32.7148 193.158C32.8785 194.697 32.06 196.186 31.1924 197.48C31.1924 197.496 31.1596 197.529 31.1433 197.545C30.7995 196.055 31.5198 194.222 32.7148 193.174V193.158ZM37.5112 193.436C37.5767 193.289 37.6422 193.141 37.6913 192.978C37.7077 192.912 37.6585 192.88 37.6094 192.863C37.8059 192.077 38.0351 191.341 38.608 190.768C38.5098 191.783 38.1333 192.65 37.5112 193.452V193.436ZM44.4685 194.353C45.3361 193.911 45.9091 193.256 45.5162 192.372C45.5162 192.339 45.4834 192.307 45.4507 192.29C45.7945 192.208 46.1382 192.176 46.482 192.192C46.4657 192.601 46.2365 193.076 45.8436 193.469C45.6144 193.698 45.3689 193.911 45.1069 194.124C44.8941 194.222 44.6813 194.287 44.4521 194.353H44.4685ZM44.5667 192.863C44.2721 192.929 43.9774 193.01 43.6827 193.092C44.1575 192.781 44.6649 192.536 45.1888 192.388C45.1069 192.65 44.9596 192.88 44.7959 193.092C44.845 192.978 44.7468 192.814 44.5831 192.847L44.5667 192.863ZM42.324 194.336C42.324 194.336 42.4059 194.205 42.455 194.156C43.1753 193.829 43.9119 193.518 44.6813 193.223C44.7304 193.207 44.7468 193.174 44.7632 193.141C44.2066 193.813 43.2407 194.222 42.3077 194.336H42.324ZM41.8329 193.698C42.5041 192.421 43.9283 191.144 45.2052 191.177C45.7617 191.177 46.1055 191.357 46.302 191.603C44.7141 191.635 43.0443 192.421 42.0457 193.633C41.9803 193.665 41.9148 193.682 41.8329 193.714V193.698ZM39.4429 202.423C39.6066 202.21 39.8194 202.03 40.0649 201.883C40.1959 201.883 40.3269 201.883 40.4578 201.883C40.5888 201.883 40.6052 201.736 40.5233 201.67C41.7183 201.228 43.3062 201.408 44.2884 202.096C43.5681 202.554 42.8315 202.865 42.0457 203.078C41.1617 202.865 40.2778 202.816 39.4429 202.423ZM18.5383 202.669C18.4728 202.178 18.5874 201.588 18.7511 201.13C19.1767 201.588 19.3732 202.194 19.3895 202.816C19.3895 202.8 19.3895 202.767 19.3732 202.751C19.2749 202.489 18.9312 202.472 18.7838 202.636C18.7347 202.521 18.571 202.522 18.5383 202.652V202.669ZM4.62371 206.287C5.0166 206.008 5.22941 205.517 5.81873 205.501C5.98243 205.501 6.12976 205.501 6.26072 205.55C6.22798 205.665 6.19524 205.779 6.1625 205.861C5.91695 206.336 5.32763 206.401 4.83653 206.319C4.77104 206.319 4.70556 206.287 4.62371 206.27V206.287ZM4.36179 204.551C5.19667 204.208 6.21161 204.453 7.01375 204.813C7.06286 204.83 7.11197 204.862 7.16108 204.879C6.91553 204.879 6.66997 204.895 6.44079 204.912C6.17887 204.83 5.91695 204.764 5.6714 204.813C5.47496 204.846 5.24578 204.912 5.03297 205.01C4.93475 205.01 4.83653 205.01 4.73831 205.026C4.62371 205.026 4.59097 205.157 4.64008 205.223C4.32905 205.452 4.11624 205.746 4.14898 206.123C3.85432 206.008 3.57603 205.845 3.41233 205.599C3.1013 205.092 3.98528 204.682 4.37816 204.519L4.36179 204.551Z" fill="white"/>
<g id="flower_3">
<path id="Vector" d="M12.4487 33.0911C12.4487 33.0911 12.4651 33.1893 12.4814 33.2384V33.3039C12.7434 34.99 13.1854 36.6597 13.8238 38.2476C13.8729 38.4113 13.9384 38.5914 13.9875 38.7551C13.9875 38.7879 14.0366 38.8042 14.053 38.837C14.6423 43.5516 15.6736 48.1516 16.6722 52.817C16.6395 52.8007 16.6395 52.7679 16.5903 52.7515C16.0665 51.6056 15.4117 50.5252 14.4622 49.9686C14.2985 49.6576 14.1512 49.3793 14.0366 49.1992C13.3163 48.1188 12.5469 46.9402 11.3683 46.2854C10.959 46.0562 10.5498 46.4491 10.6316 46.8747C11.4338 50.5252 14.0366 53.8647 16.8032 56.2875C16.9996 56.4512 17.2124 56.4839 17.3761 56.4348C17.9654 59.6925 18.3256 62.9665 18.6202 66.2569C17.9982 64.3743 17.1633 62.5736 15.9519 60.9038C15.6736 60.511 15.1825 60.5928 14.9861 60.9202C14.6914 60.9857 14.4295 61.2312 14.4295 61.6078C14.4131 64.1942 15.6245 66.6497 17.0323 68.7779C17.4088 69.4981 17.7854 70.2184 18.1455 70.906C18.3092 71.2334 18.7021 71.2825 18.9967 71.1515C18.9967 71.217 19.0131 71.2825 19.0295 71.348C19.1604 73.0341 19.3078 74.7038 19.4715 76.3899C18.7839 74.4746 17.7199 72.7394 16.0501 71.659C15.6736 71.4134 15.2316 71.7572 15.2316 72.1665C15.2316 76.0462 17.638 79.664 19.6843 82.7906C19.8316 83.0035 20.0444 83.0853 20.2409 83.0689C20.5519 85.6554 20.8629 88.2419 21.174 90.8284C19.7334 88.5038 17.5889 86.4575 15.7555 85.3935C15.4117 85.197 14.9533 85.3935 14.8715 85.7864C13.7911 90.0753 18.5056 94.6753 21.4195 97.1799C21.5832 97.3109 21.7633 97.3437 21.927 97.3273C22.1889 99.7501 22.4508 102.173 22.6964 104.596C22.6964 104.596 22.6964 104.563 22.6964 104.546C22.6636 104.432 22.5818 104.35 22.4836 104.285C21.7305 102.828 20.732 101.534 19.4551 100.65C19.095 100.405 18.5548 100.765 18.5875 101.174C18.7839 103.482 19.4387 105.791 20.5192 107.853C21.2067 109.163 22.1234 110.849 23.4003 111.848C23.6458 114.598 23.875 117.348 24.0878 120.098C22.3526 117.462 19.2096 114.303 18.4893 113.681C18.2273 113.452 17.6544 113.517 17.6053 113.943C17.2288 117.315 19.8971 120.54 22.4017 123.257C23.0565 124.256 23.7277 125.206 24.4807 126.122C24.5462 127.072 24.6117 128.021 24.6608 128.971C25.2992 140.937 25.6921 152.904 25.9377 164.887C25.1519 168.488 24.3989 172.106 23.7441 175.724C20.1263 195.957 17.5562 217.418 19.6679 237.963C19.717 238.356 20.2736 238.339 20.29 237.946C21.1903 216.289 21.5341 195.057 25.6921 173.677C25.8067 173.104 25.9377 172.531 26.0522 171.975C26.085 173.923 26.1177 175.887 26.1505 177.835C26.3305 194.369 25.1028 210.87 25.332 227.371C25.332 227.993 26.216 227.928 26.2651 227.338C28.2786 207.023 28.4914 186.331 27.9021 165.705C30.6031 158.781 33.6971 152.118 37.8223 145.979C38.1497 146.094 38.5917 145.75 38.4771 145.357C38.4608 145.275 38.4444 145.193 38.428 145.112C38.4935 145.013 38.5754 144.899 38.6408 144.801C39.2138 144.326 39.754 143.769 40.2615 143.114C40.4907 143.114 40.7198 143.114 40.949 143.098C45.0579 143.835 50.4109 141.379 52.7519 138.138C52.9483 137.86 52.7191 137.499 52.4408 137.418C49.2487 136.452 45.7127 137.745 42.717 139.578C45.4999 136.337 48.4793 133.358 51.606 130.559C51.6551 130.706 51.786 130.853 51.9497 130.886C52.7846 131.099 53.6686 131.148 54.5689 131.066C57.6956 131.393 61.0351 130.804 63.5725 128.872C63.7689 128.725 63.8344 128.365 63.5725 128.25C62.9177 127.972 62.2138 127.792 61.4771 127.661C61.428 127.497 61.3134 127.35 61.1497 127.317C58.6778 126.892 55.9931 127.612 53.7013 128.725C55.9113 126.826 58.1704 124.976 60.4785 123.159C64.6693 124.436 69.5148 120.213 71.692 117.037C71.8721 116.759 71.6102 116.382 71.2992 116.398C70.5953 116.431 69.8913 116.562 69.2038 116.726C69.2529 116.595 69.3348 116.48 69.3839 116.349C69.5312 115.973 69.0892 115.711 68.7782 115.776C65.5696 116.448 62.9832 118.936 60.5931 121.031C60.3639 121.228 60.6586 121.555 60.9042 121.424C61.1497 121.277 61.3953 121.129 61.6408 120.982C61.3953 121.211 61.1497 121.44 60.9205 121.686C60.9205 121.686 60.9205 121.719 60.9042 121.735C60.6095 121.932 60.2985 122.144 60.0038 122.357C59.8565 122.357 59.7419 122.439 59.6928 122.57C57.9412 123.781 56.2387 125.058 54.5526 126.401C55.5511 124.78 56.2223 123.028 56.3533 121.408C56.386 121.031 55.9277 120.884 55.6494 121.031C51.6387 123.045 49.4287 127.252 47.2679 130.984C47.1042 131.246 47.2679 131.574 47.4971 131.704C47.448 131.803 47.3988 131.901 47.3334 131.999C47.2351 132.196 47.5134 132.441 47.6771 132.245C47.8081 132.081 47.9227 131.901 48.0536 131.721C48.0864 131.803 48.1519 131.868 48.2337 131.901C46.5967 133.456 45.0088 135.093 43.4864 136.779C44.1412 134.52 44.354 132.261 43.8793 130.542C43.8138 130.297 43.4864 130.166 43.2736 130.313C39.443 132.867 36.038 139.628 37.1839 144.49C33.8771 149.073 31.0615 153.968 28.917 159.092C32.633 143.622 37.3967 128.381 43.3391 113.665C44.8287 109.981 46.4003 106.314 48.0373 102.68C48.2173 102.844 48.5611 102.746 48.5447 102.467C48.5284 102.222 48.512 101.976 48.4793 101.731C49.8216 98.7679 51.1967 95.8376 52.6373 92.9074C52.6864 92.9074 52.7191 92.9237 52.7682 92.9401C52.539 93.1365 52.5554 93.5949 52.9156 93.644C58.023 94.3807 63.818 89.486 66.5846 85.6227C66.8301 85.2789 66.5518 84.7878 66.1753 84.7059C61.8045 83.6583 57.2373 87.5052 53.8323 90.4846C55.6985 86.7522 57.6138 83.0362 59.6109 79.3693C59.6764 79.4839 59.8074 79.5821 59.9874 79.5494C60.1184 79.533 60.2657 79.4839 60.3967 79.4511C60.4131 79.4511 60.4294 79.4511 60.4458 79.4511C62.3938 79.3366 64.3255 78.6981 66.0935 77.7323C69.5312 76.3245 72.7725 74.2618 75.1625 71.6099C75.3753 71.3643 75.3753 70.8896 75.0315 70.7423C69.4821 68.4013 63.7034 74.3273 60.2657 78.1415C62.8522 73.3779 65.5369 68.6633 68.3198 64.0142C69.3675 64.1615 70.5134 63.9159 71.6102 63.4903C73.1326 63.2284 74.6059 62.3608 75.8664 61.2476C77.749 60.0853 79.5333 58.7594 81.0394 57.1387C81.3504 56.8113 81.2194 56.1893 80.7283 56.091C76.1775 55.2071 72.3796 58.8576 69.5312 61.9843C72.0358 57.8263 74.5896 53.701 77.2251 49.6085C77.2579 49.6576 77.2742 49.7067 77.3397 49.7394C79.2223 50.7708 81.907 49.5594 83.5604 48.5772C85.5739 47.3822 87.7184 45.7779 88.6842 43.5679C88.7988 43.2896 88.7169 42.8313 88.3404 42.7822C84.5426 42.3565 80.5319 45.516 78.191 48.1843C77.8963 48.5281 78.0273 49.0519 78.4693 49.1665C78.5511 49.1829 78.633 49.1992 78.7312 49.2156C78.3219 49.232 77.9291 49.232 77.5525 49.1829C77.5198 49.1829 77.5198 49.1829 77.4871 49.1829C80.0244 45.254 82.6109 41.358 85.2301 37.511C89.3063 37.2654 93.7753 35.8249 96.4109 32.6491C96.6892 32.3217 96.591 31.7487 96.1162 31.6505C93.0223 31.0776 90.0593 32.6982 87.4728 34.5153C87.3582 34.5971 87.2436 34.6626 87.129 34.7444C88.7006 32.469 90.2721 30.2099 91.8764 27.9509C93.0714 27.9509 94.4137 27.2142 95.3305 26.6904C97.1803 25.6427 99.1774 24.3822 100.602 22.7779C100.847 22.4996 100.765 21.9103 100.34 21.8612C98.6208 21.6648 96.9511 22.0904 95.4614 22.9252C96.3781 21.6648 97.2785 20.4043 98.1952 19.1438C98.4244 18.9637 98.6372 18.7672 98.85 18.5708C101.748 18.7509 105.382 16.1644 106.986 14.0854C107.199 13.8071 107.101 13.4961 106.773 13.3815C105.005 12.6939 103.385 13.1523 101.895 14.1345C103.352 12.1865 104.809 10.2221 106.282 8.29039C106.298 8.32313 106.331 8.3395 106.38 8.35587C107.772 8.71601 109.18 6.81708 109.949 5.90036C111.046 4.57438 112.339 3.00285 112.503 1.21852C112.519 1.02207 112.323 0.792893 112.143 0.776523C108.688 0.367271 105.971 4.91815 105.005 8.06121C103.385 9.6 101.813 11.2206 100.323 12.8904C100.962 11.2534 101.371 9.51815 101.453 7.78292C101.469 7.3573 100.913 7.20997 100.651 7.47189C99.3902 8.6669 98.8009 10.2712 98.4244 11.9409C98.097 13.3979 97.4913 14.953 97.3276 16.4263C96.1162 17.916 94.9539 19.4384 93.808 20.9936C94.2337 18.8327 94.2173 16.7046 93.628 15.2313C93.4806 14.8548 93.0877 14.7893 92.7931 15.0349C91.3198 16.2299 86.376 26.1829 89.6337 27.0341C89.4045 27.3779 89.1753 27.7381 88.9461 28.0982C88.9134 28.1146 88.8806 28.1473 88.8479 28.1637C88.7169 28.2455 88.6678 28.3765 88.6842 28.4911C87.1127 30.9138 85.6066 33.3694 84.1006 35.8412C84.297 35.0227 84.428 34.2042 84.5426 33.4676C84.87 31.3558 85.2137 29.0968 84.7554 26.9687C84.6572 26.5267 84.1006 26.5758 83.8878 26.8704C81.5468 30.0626 80.4992 34.6462 81.4977 38.4932C81.5796 38.8042 81.8415 38.9188 82.1034 38.8697C82.0543 38.9516 82.0052 39.0498 81.9561 39.1316C81.8742 39.2462 81.907 39.3608 81.9561 39.459C80.2045 42.4056 78.4856 45.3523 76.7668 48.2498C77.8308 44.9921 78.1091 41.1779 76.9796 38.4277C76.8323 38.0676 76.3248 37.8384 76.0301 38.1985C72.838 42.0782 71.8885 47.7096 72.7397 52.5715C72.8543 53.2099 73.771 53.0789 73.9184 52.5387C74.0493 52.0967 74.1476 51.6384 74.2621 51.18C74.3113 51.1473 74.3604 51.0982 74.3767 51.0327C75.1298 47.9715 75.5718 44.8612 76.292 41.7836C76.4066 41.2597 75.8992 40.9651 75.5063 41.0797C75.7355 40.654 75.981 40.2448 76.2429 39.8519C77.2742 43.6825 75.8337 48.4298 74.2458 51.8184C74.1476 52.0313 74.2458 52.195 74.3767 52.2768C73.591 53.5864 72.7888 54.8797 72.0031 56.1565C70.4316 58.6939 68.86 61.2312 67.3212 63.785C68.5654 60.0362 68.86 55.7145 67.2558 52.375C67.0921 52.0476 66.6337 52.064 66.4045 52.2768C66.1262 52.5551 65.8643 52.8661 65.6187 53.1935C65.586 53.2263 65.5533 53.259 65.5369 53.3081C63.1469 56.6313 62.6721 62.4263 64.0145 66.306C64.0145 66.8134 64.0472 67.3209 64.0636 67.8284C64.08 68.1722 64.4401 68.3031 64.6856 68.1885C62.5084 71.8718 60.3803 75.5714 58.3013 79.3038C59.6109 75.3423 59.6273 70.4149 57.6793 66.9444C57.4992 66.6334 57.1227 66.6661 56.8771 66.8625C53.3903 69.7273 52.7846 76.5209 55.0273 80.6134C55.1255 81.4319 55.2237 82.2504 55.3383 83.0362C55.4038 83.4127 55.9931 83.56 56.075 83.118C56.1241 82.807 56.1568 82.4796 56.1896 82.1686C56.3369 82.2668 56.5334 82.2832 56.7134 82.2341C54.3889 86.4903 52.1625 90.7956 50.0181 95.1501C51.1967 91.8924 49.6579 85.7209 48.8394 83.6583C48.6593 83.1999 48.0373 83.1999 47.8899 83.6746C46.7768 87.0632 46.4821 90.7629 46.8423 94.3807C46.8423 96.476 47.0223 98.555 47.4316 100.569C45.1725 105.414 43.0444 110.325 41.0964 115.334C35.727 129.069 31.1761 143.229 27.6401 157.602C27.2636 147.583 26.7071 137.598 26.1014 127.677C26.2814 127.612 26.4288 127.399 26.3142 127.186C26.2323 127.039 26.1341 126.892 26.0522 126.728C26.0522 126.613 26.0522 126.515 26.0359 126.401C25.9213 124.436 25.774 122.455 25.6266 120.491C29.1462 122.455 34.8757 111.831 35.5305 109.556C35.6615 109.114 35.1049 108.672 34.712 108.95C33.9917 109.458 33.3369 110.014 32.6821 110.603C32.5348 110.472 32.322 110.407 32.1092 110.472C28.5241 111.569 26.7234 115.727 25.512 119.083C25.332 116.922 25.1519 114.761 24.9391 112.601C25.1355 112.535 25.2665 112.273 25.1355 112.093C25.0537 111.962 24.9391 111.848 24.8572 111.733C24.6772 109.916 24.4971 108.082 24.3007 106.265C24.3334 106.282 24.3825 106.282 24.4152 106.298C24.4152 106.331 24.3989 106.364 24.3825 106.38C24.317 106.609 24.6444 106.806 24.8081 106.609C24.9063 106.495 25.0046 106.364 25.1028 106.233C28.1476 105.611 29.7519 101.272 30.8487 97.9821C31.0942 97.8184 31.3562 97.6874 31.6344 97.5565C31.7818 100.781 28.9825 106.053 25.954 106.904C25.512 107.035 25.7248 107.657 26.1505 107.575C29.9974 106.838 33.0586 100.339 32.453 96.7707C32.4202 96.5251 32.0928 96.3942 31.88 96.4597C31.6672 96.5251 31.4544 96.6234 31.2416 96.7216C31.3725 96.3287 31.5035 95.9522 31.6181 95.6412C31.7818 95.1992 31.1597 94.9536 30.8651 95.2319C30.4231 95.6575 28.8679 97.7693 27.5747 99.9465C26.2651 101.665 25.2665 103.728 24.6444 105.545C24.5953 105.545 24.5462 105.578 24.4971 105.578C24.3825 105.578 24.2843 105.627 24.2352 105.709C23.3676 97.5728 22.3854 89.4369 21.4195 81.2846C21.4523 81.301 21.4686 81.3173 21.5177 81.3337C21.5505 81.743 22.1398 81.8739 22.3199 81.4974C22.3526 81.4319 22.369 81.3664 22.4017 81.3173C26.2814 80.5479 28.2131 71.7245 28.2458 68.8106C28.2458 68.4341 27.7875 68.1885 27.4601 68.385C23.9078 70.7095 21.7633 76.2917 21.5341 80.5643C21.4523 80.5643 21.4031 80.5971 21.3377 80.6298C21.2231 79.6967 21.1085 78.78 21.0103 77.8469C20.601 74.2946 20.3718 70.7259 20.0444 67.1572C20.2409 67.0754 20.4209 66.9117 20.4864 66.7152C20.5355 66.617 20.5355 66.5024 20.5683 66.4042C22.9092 65.7003 24.0878 58.301 24.4316 56.9095C24.5462 56.4512 23.9241 56.0583 23.5804 56.4512C22.0743 58.2192 21.1085 60.2818 20.3718 62.4754C20.2409 62.8683 19.9626 63.4412 19.717 64.0469C19.4224 61.4768 19.0459 58.9067 18.4565 56.3857C18.3419 55.8946 18.2273 55.4199 18.1128 54.9288C18.1946 54.896 18.2601 54.8305 18.3092 54.7323C18.522 54.1266 18.6039 53.4882 18.653 52.8498C21.0921 51.5565 20.7975 45.9088 20.3882 43.879C20.29 43.4042 19.6515 43.4206 19.4387 43.7807C18.2273 45.7943 17.3597 48.9537 17.3434 51.753C16.3939 47.9715 15.4444 44.19 14.806 40.3594C15.1498 40.9814 15.5099 41.5871 15.9355 42.1765C16.3612 42.7494 17.458 42.3893 17.1469 41.6363C16.6067 40.3103 15.8373 38.9843 15.1825 37.6256C15.5263 35.9722 14.233 31.7815 14.0039 31.2413C13.8074 30.7665 13.1199 30.7174 12.9726 31.274C12.8416 31.7324 12.7597 32.1907 12.727 32.6491C12.5469 32.7309 12.4323 32.8946 12.4651 33.1729L12.4487 33.0911ZM20.5192 65.422C20.8302 64.3088 21.5996 62.4263 21.7305 62.0497C22.0579 61.1167 22.4181 60.2327 22.8437 59.3651C22.2871 61.6732 21.4359 64.6526 20.5028 65.422H20.5192ZM22.8928 80.1223C24.2188 76.5864 24.2352 72.6248 27.149 69.9074C26.8053 72.9195 25.332 78.5999 22.8928 80.1223ZM27.1163 102.779C27.3127 102.386 27.5256 102.009 27.7384 101.633C28.0167 101.142 28.2786 100.716 28.475 100.405C28.8352 99.8646 29.228 99.3572 29.67 98.8988C28.9498 100.945 27.9512 103.155 26.6252 104.448C26.6252 104.006 26.838 103.417 27.1327 102.795L27.1163 102.779ZM32.1419 113.796C32.3547 113.239 32.5348 112.682 32.6821 112.126C32.9768 111.815 33.2715 111.52 33.5825 111.242C33.1896 112.011 32.6985 112.895 32.1419 113.812V113.796ZM26.3797 119.771C27.722 117.381 28.606 114.09 30.8651 112.42C29.3099 114.238 28.0494 116.333 27.2636 118.576C27.1654 118.87 27.3619 119.181 27.6401 119.296C27.1818 119.607 26.7562 119.771 26.3797 119.771ZM48.4138 96.1323C48.4138 96.1323 48.3319 96.1977 48.2992 96.2141C48.2501 95.9849 48.2173 95.7558 48.1846 95.5266C48.1846 93.7422 48.2337 91.9415 48.4465 90.1736C48.6102 92.1707 48.6921 94.1842 48.4465 96.1323H48.4138ZM56.4515 72.6412C56.9099 75.1458 57.0736 77.7814 56.3369 80.1387C56.4024 77.6341 56.1568 75.1294 56.4515 72.6412ZM58.1049 74.9821C57.9575 73.0341 57.5483 71.1024 57.1063 69.3017C57.0244 68.9743 56.7953 68.8433 56.5497 68.8433C56.7298 68.5487 56.9262 68.2868 57.139 68.0248C58.1212 70.0384 58.3013 72.4611 58.1376 74.6547C58.1376 74.7202 58.1376 74.8512 58.1049 74.9821ZM73.6565 48.348C73.7219 46.269 74.1312 44.1736 74.917 42.2583C74.7696 42.8968 74.6387 43.5352 74.5077 44.1736C74.2294 45.5651 73.9511 46.9565 73.6565 48.348ZM106.56 7.89751C106.822 7.57011 107.068 7.22634 107.313 6.89893C107.543 6.60427 107.313 6.2605 107.019 6.27687C107.968 4.31246 108.967 2.23346 110.931 1.70962C112.044 1.41496 111.308 2.2662 110.931 2.921C110.456 3.72314 109.933 4.47616 109.343 5.19645C108.803 5.83488 107.51 7.65196 106.577 7.89751H106.56ZM99.5539 17.8178C101.404 15.8206 103.139 13.3651 105.938 13.9544C105.087 14.9039 104.007 15.6897 102.91 16.3281C101.928 16.8847 100.749 17.5722 99.5539 17.8178ZM100.34 9.41993C100.127 10.7132 99.7504 11.9737 99.2429 13.2014C99.5048 11.9082 99.7504 10.5822 100.34 9.41993ZM96.7383 23.4818C97.4258 23.1708 98.1625 22.9416 98.8991 22.8598C98.2607 23.4327 97.5568 23.9402 96.8529 24.4149C96.9675 24.284 97.082 24.1366 97.1803 23.9893C97.3767 23.6946 97.0329 23.3836 96.7383 23.4655V23.4818ZM92.9077 16.2954C93.3333 18.2598 92.9568 20.9936 92.0564 23.3836C92.0073 23.4655 91.9582 23.5309 91.8927 23.6128C91.8927 23.5964 91.8927 23.5801 91.9091 23.5637C91.9255 23.4327 91.8764 23.3509 91.8109 23.269C92.2038 21.9103 92.6294 20.568 92.9895 19.1929C93.0878 18.8164 92.5639 18.669 92.4002 18.9637H92.3838C91.8927 19.9623 91.4671 21.0263 91.107 22.1231C91.1397 21.7793 91.1724 21.4192 91.2216 21.0754C91.2543 20.8462 90.9269 20.7644 90.8778 20.9936C90.7468 21.6648 90.7468 22.3359 90.5668 22.9907C90.534 23.1217 90.6322 23.2199 90.7305 23.2526C90.534 23.8911 90.3376 24.5459 90.1575 25.2007C90.092 25.4462 90.2066 25.6591 90.3867 25.7573C90.3212 25.8555 90.2557 25.9537 90.1739 26.0519C88.5532 24.3822 91.1888 18.489 92.8913 16.279L92.9077 16.2954ZM91.4835 34.6953C91.8109 34.2533 92.0728 33.7459 92.2038 33.2057C93.0059 32.8946 93.8244 32.6982 94.6593 32.6654C93.7098 33.5658 92.6294 34.2042 91.4835 34.6953ZM80.3191 48.037C82.0871 46.9565 83.6586 45.5651 85.5739 44.7629C84.5098 46.5473 82.3817 47.8733 80.3191 48.037ZM71.7903 61.8697C73.5091 60.4455 75.0643 58.5629 77.1105 57.8917C76.5049 58.743 75.7355 59.627 74.8678 60.38C74.7696 60.4455 74.6714 60.511 74.5568 60.5764C73.6401 61.1003 72.7234 61.5095 71.7903 61.8861V61.8697ZM65.9134 58.5629C65.9625 60.3145 65.8643 62.0825 65.5205 63.7686C65.6679 62.0334 65.7661 60.2981 65.9134 58.5629ZM67.2066 59.6597C67.223 57.7935 67.0757 55.9437 66.8138 54.1921C67.3376 55.8782 67.4195 57.7608 67.2066 59.6597ZM70.6607 73.9508C71.381 73.0996 72.0358 72.1992 72.5433 71.2497C72.9362 71.2497 73.3127 71.3316 73.7056 71.4134C72.7725 72.3629 71.7412 73.2141 70.6444 73.9508H70.6607ZM62.9668 77.6832C65.4059 75.7515 67.6978 73.6398 70.4807 72.2811C68.8928 74.4419 66.6173 76.259 64.0963 77.2903C63.8835 77.3721 63.6543 77.454 63.4252 77.5359C63.2778 77.585 63.1141 77.6341 62.9668 77.6832ZM62.0664 86.2447C62.9995 85.8846 63.9326 85.6881 64.8493 85.7209C64.3746 86.3102 63.8508 86.8995 63.2615 87.4889C63.3433 87.3088 63.4415 87.1124 63.507 86.9323C63.6543 86.523 63.2287 86.081 62.8358 86.1138C62.5739 86.1138 62.312 86.1956 62.0501 86.2447H62.0664ZM54.749 91.7451C57.27 90.9593 59.0871 88.4547 61.6572 87.6689C60.2657 89.7807 57.3191 91.565 54.749 91.7451ZM66.9284 118.412C65.8807 119.591 64.5219 120.556 63.0814 121.08C63.7198 120.589 64.3582 120.082 65.0131 119.591C65.0785 119.541 65.0949 119.476 65.0949 119.411C65.6842 119.034 66.2899 118.69 66.9284 118.396V118.412ZM61.1497 122.586C61.1497 122.586 61.2316 122.521 61.2807 122.488C64.1618 122.324 67.0921 120.262 68.6636 117.724C69.2202 117.544 69.7931 117.43 70.3824 117.348C68.3198 119.967 64.5383 123.077 61.1661 122.586H61.1497ZM53.1775 124.24C52.359 125.517 51.4586 126.777 50.46 127.923C51.2785 126.613 52.1462 125.353 53.1775 124.24ZM57.2209 130.411C58.6123 129.904 59.9056 129.167 60.986 128.316C61.5262 128.381 62.0664 128.496 62.5575 128.643C60.986 129.691 59.1198 130.248 57.2209 130.411ZM53.243 130.117C54.0778 129.56 55.0273 129.118 56.0586 128.791C56.1077 128.791 56.1405 128.758 56.1896 128.758C57.27 128.43 58.4159 128.267 59.5454 128.25C57.7284 129.429 55.3547 130.28 53.243 130.117ZM49.1341 130.722C51.6551 128.512 53.5213 125.549 55.1746 122.668C54.3889 125.746 51.8024 129.036 49.1341 130.722ZM41.08 141.969C41.08 141.969 41.1127 141.903 41.1455 141.87C41.4729 141.625 41.8003 141.379 42.1604 141.134C42.2259 141.215 42.3241 141.265 42.4223 141.232C44.7633 140.495 46.8095 138.58 49.3141 138.678C47.186 140.675 44.0266 141.723 41.08 141.985V141.969ZM40.7853 139.808C41.3255 138.58 41.8821 137.238 42.6515 136.108C42.4551 136.877 42.2259 137.647 41.9312 138.416C41.5384 138.875 41.1618 139.349 40.769 139.808H40.7853ZM39.5085 136.828C40.0159 135.682 40.5561 134.52 41.2928 133.505C41.4401 133.292 43.3063 130.46 43.2736 132.081C43.2572 132.949 43.1262 133.931 42.9298 134.962C42.9298 134.962 42.8971 134.962 42.8807 134.978C41.5875 136.075 40.8181 137.729 40.065 139.218C39.4921 140.331 38.7063 141.608 38.1825 142.885C38.1497 140.823 38.6736 138.76 39.5248 136.845L39.5085 136.828ZM24.2188 122.095C24.2188 122.243 24.2352 122.406 24.2515 122.554C23.3512 121.097 22.3854 119.689 21.3704 118.314C22.5818 119.705 23.7277 121.162 24.2188 122.095ZM22.3035 108.557C22.0088 108.148 21.7469 107.722 21.5177 107.248C20.7975 105.758 20.2572 104.219 19.9626 102.615C20.6992 103.401 21.2886 104.35 21.7797 105.398C21.7469 106.495 21.927 107.559 22.3035 108.557ZM21.0266 95.1173C18.7348 93.0056 15.9192 89.9116 15.9683 86.9814C16.6886 87.4725 17.3597 88.0454 17.9654 88.6675C17.8836 88.7494 17.8181 88.8639 17.8836 88.9949C18.8003 91.0903 20.4537 92.9074 21.0266 95.1173ZM18.3747 78.3707C17.4743 76.7828 16.754 75.0967 16.4757 73.3451C16.8686 73.7053 17.196 74.1309 17.5071 74.5729C17.3597 74.6383 17.2615 74.7857 17.327 74.9985C17.6708 76.128 18.0309 77.2412 18.3747 78.3707ZM19.5697 45.8925C19.7007 47.7914 19.6024 50.427 18.6693 51.6384C18.6693 51.1473 18.6857 50.6398 18.7348 50.1651C18.8658 48.6918 19.0786 47.2512 19.5697 45.8925ZM13.2836 49.7394C13.1526 49.8377 13.0708 49.985 13.0871 50.1487C12.7106 49.5103 12.3832 48.8555 12.1049 48.1843C12.5306 48.659 12.9234 49.1829 13.2836 49.7394Z" fill="white"/>
<path id="Vector_2" d="M25.136 92.0233C28.0335 89.7315 29.8997 84.4603 29.8997 81.35C29.8997 80.9244 29.3594 80.6133 28.9993 80.8753C25.6598 83.1998 24.6121 88.0781 23.6299 91.9578C23.4662 92.0888 23.3189 92.2361 23.1552 92.3507C22.8605 92.5635 23.0242 93.0219 23.3844 92.9727C23.3025 93.5621 24.121 93.7749 24.4484 93.3001C24.7267 92.8909 24.9395 92.4653 25.136 92.0397V92.0233ZM26.0691 89.2404C26.6584 86.9813 27.084 84.6567 28.6392 82.8397C28.3609 84.9678 27.395 87.3087 26.0691 89.2404Z" fill="white"/>
</g>
</g>
</svg>
